<?xml version="1.0" encoding="UTF-8" standalone="no"?>
<svg
   xmlns:dc="http://purl.org/dc/elements/1.1/"
   xmlns:cc="http://creativecommons.org/ns#"
   xmlns:rdf="http://www.w3.org/1999/02/22-rdf-syntax-ns#"
   xmlns:svg="http://www.w3.org/2000/svg"
   xmlns="http://www.w3.org/2000/svg"
   width="176.95274pt"
   version="1.1"
   height="97.050003pt"
   viewBox="0 0 176.95274 97.050003"
   id="svg907">
  <metadata
     id="metadata911">
    <rdf:RDF>
      <cc:Work
         rdf:about="">
        <dc:format>image/svg+xml</dc:format>
        <dc:type
           rdf:resource="http://purl.org/dc/dcmitype/StillImage" />
        <dc:title>Structural formula of 1,2-propanediol.eps</dc:title>
      </cc:Work>
    </rdf:RDF>
  </metadata>
  <title
     id="title873">Structural formula of 1,2-propanediol.eps</title>
  <defs
     id="defs878">
    <clipPath
       id="Clip0">
      <path
         d="M 0,0 H 161.953 V 82.05 H 0 Z"
         id="path875" />
    </clipPath>
  </defs>
  <g
     id="Hintergrund"
     transform="translate(100.73776,-23.378658)">
    <g
       id="Gruppe4"
       transform="translate(-93.237841,30.87866)"
       style="fill:none;stroke:none"
       clip-rule="evenodd"
       clip-path="url(#Clip0)">
      <g
         id="Gruppe1"
         transform="translate(0,59.55)"
         style="fill:none;stroke:none">
        <path
           style="fill:#000000;fill-rule:nonzero;stroke:none"
           d="M 11.2344,9.96875 V 18 h 2.2343 V 0 H 11.2344 V 8 H 2.23438 V 0 H 0 V 18 H 2.23438 V 9.96875 Z"
           id="path880" />
        <path
           transform="translate(15.9062,9.5)"
           style="fill:#000000;fill-rule:nonzero;stroke:none"
           d="m 3.40625,6.79688 h 0.20313 0.65624 c 1.73438,0 2.65626,0.78124 2.65626,2.28124 0,1.57808 -1,2.53128 -2.625,2.53128 -1.75,0 -2.59376,-0.8594 -2.70313,-2.68752 H 0 c 0.078125,1 0.265625,1.65622 0.5625,2.21872 C 1.23438,12.375 2.46875,13 4.21875,13 6.84375,13 8.54688,11.4375 8.54688,9.0625 8.54688,7.46875 7.90625,6.60938 6.375,6.09375 7.5625,5.625 8.15625,4.76562 8.15625,3.5 8.15625,1.35938 6.70312,0 4.26562,0 1.70312,0 0.328125,1.45312 0.28125,4.09375 H 1.85938 C 1.875,3.32812 1.95312,2.89062 2.15625,2.51562 c 0.35937,-0.70312 1.14063,-1.125 2.14063,-1.125 1.40624,0 2.25,0.8125 2.25,2.15626 0,0.89062 -0.32813,1.42187 -1.03126,1.71874 C 5.07812,5.4375 4.5,5.5 3.40625,5.51562 Z"
           id="path882" />
        <path
           transform="translate(26.4921)"
           style="fill:#000000;fill-rule:nonzero;stroke:none"
           d="M 14.7344,5.64062 C 14.0469,1.875 11.8438,0 8,0 5.64063,0 3.75,0.75 2.45313,2.1875 0.875,3.875 0,6.3125 0,9.07812 0,11.8906 0.890625,14.3125 2.53125,15.9688 3.89063,17.3594 5.625,18 7.90625,18 12.1719,18 14.5781,15.7188 15.0938,11.1875 H 12.7969 C 12.6094,12.3594 12.3594,13.1562 12,13.8438 11.2813,15.25 9.79688,16.0469 7.92188,16.0469 c -3.48438,0 -5.6875,-2.7188 -5.6875,-6.9844 0,-4.39062 2.09375,-7.09375 5.5,-7.09375 1.42187,0 2.73442,0.40625 3.45312,1.09375 0.6563,0.57812 1.0156,1.28125 1.2656,2.57812 z"
           id="path884" />
      </g>
      <path
         transform="translate(42.6781,47.75)"
         style="fill:#000000;fill-rule:nonzero;stroke:none"
         d="m 24.9,0 0.85,0.5 V 1.45 L 0.85,15.85 0,14.35"
         id="path887" />
      <path
         transform="translate(68.4281,47.75)"
         style="fill:#000000;fill-rule:nonzero;stroke:none"
         d="M 34.35,19.35 V 21.3 L 0,1.45 V 0.5 L 0.85,0"
         id="path889" />
      <g
         id="Gruppe2"
         transform="translate(59.9844)"
         style="fill:none;stroke:none">
        <path
           style="fill:#000000;fill-rule:nonzero;stroke:none"
           d="M 8.42188,0 C 3.40625,0 0,3.67188 0,9.01562 0,14.375 3.375,18 8.45312,18 10.5781,18 12.4531,17.3594 13.875,16.1562 15.7656,14.5938 16.8906,11.9375 16.8906,9.15625 16.8906,3.64062 13.5625,0 8.42188,0 Z m 0,1.96875 c 3.79692,0 6.23432,2.79687 6.23432,7.14063 0,4.12502 -2.5156,6.93752 -6.20308,6.93752 -3.75,0 -6.21874,-2.8125 -6.21874,-7.03128 0,-4.21874 2.46874,-7.04687 6.1875,-7.04687 z"
           id="path891" />
        <path
           transform="translate(19.7501)"
           style="fill:#000000;fill-rule:nonzero;stroke:none"
           d="M 11.2344,9.96875 V 18 h 2.2344 V 0 H 11.2344 V 8 H 2.23438 V 0 H 0 V 18 H 2.23438 V 9.96875 Z"
           id="path893" />
      </g>
      <path
         transform="translate(67.5781,20.5)"
         style="fill:#000000;fill-rule:nonzero;stroke:none"
         d="M 0,0 H 1.7 V 27.25 L 0.85,27.75 0,27.25"
         id="path896" />
      <g
         id="Gruppe3"
         transform="translate(128.734,39.7)"
         style="fill:none;stroke:none">
        <path
           style="fill:#000000;fill-rule:nonzero;stroke:none"
           d="M 8.42188,0 C 3.40625,0 0,3.67188 0,9.01562 0,14.375 3.375,18 8.45312,18 10.5781,18 12.4531,17.3594 13.875,16.1562 15.7656,14.5938 16.8906,11.9375 16.8906,9.15625 16.8906,3.64062 13.5625,0 8.42188,0 Z m 0,1.96875 c 3.79692,0 6.23432,2.79687 6.23432,7.14063 0,4.12502 -2.5156,6.93752 -6.20308,6.93752 -3.75,0 -6.21874,-2.8125 -6.21874,-7.03128 0,-4.21874 2.46874,-7.04687 6.1875,-7.04687 z"
           id="path898" />
        <path
           transform="translate(19.7501)"
           style="fill:#000000;fill-rule:nonzero;stroke:none"
           d="M 11.2344,9.96875 V 18 h 2.2344 V 0 H 11.2344 V 8 H 2.23438 V 0 H 0 V 18 H 2.23438 V 9.96875 Z"
           id="path900" />
      </g>
      <path
         transform="translate(102.778,53.1)"
         style="fill:#000000;fill-rule:nonzero;stroke:none"
         d="M 24.3,0 25.15,1.45 0,15.95 V 14 Z"
         id="path903" />
    </g>
  </g>
</svg>
