<?xml version="1.0" encoding="UTF-8" standalone="no"?>
<svg xmlns:svg="http://www.w3.org/2000/svg" xmlns="http://www.w3.org/2000/svg" version="1.0" width="453.89999" height="391.29999" viewBox="0 0 453.9 391.3" xml:space="preserve">
<g transform="translate(50,50)">
<polygon points="126.5,173.8 126.5,182.8 4,253.8 2,250.3 0,246.8 126.5,173.8" />
<path d="M 225,280.8 C 218.6,273.8 215.3,264.7 215.3,253.4 C 215.3,242.1 218.5,232.9 225,225.9 C 231.4,218.9 239.9,215.4 250.3,215.4 C 260.8,215.4 269.2,218.9 275.7,225.9 C 282.2,232.9 285.3,242 285.3,253.4 C 285.3,264.7 282.1,273.8 275.7,280.8 C 269.3,287.8 260.8,291.2 250.3,291.2 C 239.9,291.3 231.5,287.8 225,280.8 z M 268.5,274.6 C 273.1,269.2 275.4,262.2 275.4,253.5 C 275.4,244.7 273.1,237.7 268.5,232.3 C 263.9,226.9 257.9,224.2 250.4,224.2 C 242.9,224.2 236.9,226.9 232.3,232.3 C 227.7,237.7 225.4,244.8 225.4,253.5 C 225.4,262.2 227.7,269.3 232.3,274.6 C 236.9,279.9 242.9,282.7 250.4,282.7 C 257.8,282.6 263.9,279.9 268.5,274.6 z" />
<path d="M 297,217.5 L 301.8,217.5 L 306.7,217.5 L 306.7,246.9 L 344.1,246.9 L 344.1,217.5 L 348.9,217.5 L 353.8,217.5 L 353.8,289.3 L 349,289.3 L 344.1,289.3 L 344.1,255.5 L 306.7,255.5 L 306.7,289.3 L 301.9,289.3 L 297,289.3 L 297,217.5 z" />
<polygon points="212.5,223.3 208.5,230.3 126.5,182.8 126.5,173.8 212.5,223.3" />
<path d="M 101,65.3 C 94.6,58.3 91.3,49.2 91.3,37.9 C 91.3,26.6 94.5,17.4 101,10.4 C 107.4,3.4 115.9,-0.1 126.3,-0.1 C 136.8,-0.1 145.2,3.4 151.7,10.4 C 158.2,17.4 161.3,26.5 161.3,37.9 C 161.3,49.2 158.1,58.3 151.7,65.3 C 145.3,72.3 136.8,75.7 126.3,75.7 C 115.9,75.8 107.5,72.3 101,65.3 z M 144.5,59.1 C 149.1,53.7 151.4,46.7 151.4,38 C 151.4,29.2 149.1,22.2 144.5,16.8 C 139.9,11.4 133.9,8.7 126.4,8.7 C 118.9,8.7 112.9,11.4 108.3,16.8 C 103.7,22.2 101.4,29.3 101.4,38 C 101.4,46.7 103.7,53.8 108.3,59.1 C 112.9,64.4 118.9,67.2 126.4,67.2 C 133.8,67.1 139.9,64.4 144.5,59.1 z" />
<rect width="8" height="99" x="109.5" y="86.8" />
<rect width="8" height="99" x="135.5" y="86.8" />
</g>
</svg>

